<?xml version="1.0" encoding="UTF-8"?>
<svg width="30px" height="30px" viewBox="0 0 30 30" version="1.1" xmlns="http://www.w3.org/2000/svg" xmlns:xlink="http://www.w3.org/1999/xlink">
    <!-- Generator: sketchtool 51.3 (57544) - http://www.bohemiancoding.com/sketch -->
    <title>DEDFCDD4-F80D-41E4-8EAF-783B53BE49DA</title>
    <desc>Created with sketchtool.</desc>
    <defs></defs>
    <g id="Welcome" stroke="none" stroke-width="1" fill="none" fill-rule="evenodd">
        <g id="Oracle---Main-Page" transform="translate(-1250.000000, -30.000000)" fill="#222222" fill-rule="nonzero">
            <g id="Search" transform="translate(1040.000000, 30.000000)">
                <g id="Search-Icon" transform="translate(210.000000, 0.000000)">
                    <path d="M22.2814958,19.4530687 L29.8450753,27.0166482 L27.0166482,29.8450753 L19.4530687,22.2814958 C17.491431,23.6784181 15.0916609,24.5 12.5,24.5 C5.872583,24.5 0.5,19.127417 0.5,12.5 C0.5,5.872583 5.872583,0.5 12.5,0.5 C19.127417,0.5 24.5,5.872583 24.5,12.5 C24.5,15.0916609 23.6784181,17.491431 22.2814958,19.4530687 Z M12.5,19.5 C16.3659932,19.5 19.5,16.3659932 19.5,12.5 C19.5,8.63400675 16.3659932,5.5 12.5,5.5 C8.63400675,5.5 5.5,8.63400675 5.5,12.5 C5.5,16.3659932 8.63400675,19.5 12.5,19.5 Z" id="Combined-Shape"></path>
                </g>
            </g>
        </g>
    </g>
</svg>